<svg width="1077" height="1078" viewBox="0 0 1077 1078" fill="none" xmlns="http://www.w3.org/2000/svg">
<path opacity="0.7" d="M445.702 76.2617L1000.51 631.453C1049.49 680.522 1077 747.046 1077 816.407C1077 885.768 1049.49 952.292 1000.51 1001.36C951.57 1050.36 885.203 1077.93 815.98 1078C746.756 1078.07 680.333 1050.64 631.297 1001.74L76.4945 446.547C27.5136 397.478 6.53088e-05 330.954 7.13726e-05 261.593C7.74363e-05 192.232 27.5136 125.708 76.4945 76.6394C125.43 27.6349 191.796 0.0709675 261.02 0.000172805C330.244 -0.070744 396.667 27.3574 445.702 76.2617Z" fill="url(#paint0_linear_598_6)" fill-opacity="0.2"/>
<defs>
<linearGradient id="paint0_linear_598_6" x1="523.542" y1="1100.59" x2="78.3653" y2="244.395" gradientUnits="userSpaceOnUse">
<stop stop-opacity="0"/>
<stop offset="1"/>
</linearGradient>
</defs>
</svg>
