<svg width="686" height="187" viewBox="0 0 686 187" fill="none" xmlns="http://www.w3.org/2000/svg">
<path d="M82.9388 148.766C83.1341 151.617 81.0638 153.199 77.3138 153.238C74.9114 153.258 72.5286 153.238 70.1263 153.238V153.219C67.6067 153.219 65.0872 153.297 62.5872 153.199C57.0989 153.004 52.3919 149.352 51.7474 144C50.0286 129.82 44.3646 116.988 37.9974 104.527C32.763 94.293 29.7552 83.9609 30.9661 72.4375C33.4075 49.4883 53.056 30.582 75.888 29.3906C76.806 29.332 78.8958 29.2734 78.9349 29.2734C81.2981 29.2734 83.2122 31.1875 83.2122 33.5508C83.2122 35.7383 81.5716 37.5156 79.4817 37.7695C79.2669 37.8281 75.7903 38.1601 70.3411 39.5664C45.9075 45.8359 32.5872 72.7304 43.3489 95.543C43.5442 95.9726 43.7591 96.4024 43.9739 96.8125C51.2396 110.973 57.9388 125.465 60.1458 141.5C60.4583 143.746 61.7278 144.488 63.8372 144.469C68.388 144.43 72.9388 144.527 77.4896 144.449C80.5755 144.41 82.7239 145.445 82.9388 148.766Z" fill="white"/>
<path d="M79.2111 170.719C72.3947 170.719 65.5783 170.738 58.7619 170.719C55.1095 170.699 53.3713 169.293 53.3517 166.48C53.3322 163.668 55.1095 162.125 58.7033 162.125C72.5705 162.086 86.4572 162.086 100.324 162.125C103.86 162.145 105.695 163.766 105.539 166.617C105.363 169.84 103.254 170.777 100.383 170.777C93.3127 170.738 86.2619 170.738 79.2111 170.719C79.2111 170.738 79.2111 170.738 79.2111 170.719Z" fill="white"/>
<path d="M79.3107 186.227C76.088 186.227 72.8654 186.207 69.6427 186.227C66.6544 186.266 64.6818 184.957 64.7013 181.891C64.7208 179.059 66.5763 177.613 69.3888 177.594C76.0685 177.555 82.7482 177.555 89.4279 177.574C92.2013 177.594 94.1154 178.922 94.174 181.793C94.2326 184.86 92.3576 186.246 89.3302 186.227C85.9904 186.207 82.6505 186.227 79.3107 186.227Z" fill="white"/>
<path d="M126.223 96.4217C125.988 95.5624 125.637 94.7616 125.207 93.9999C124.777 93.2382 124.25 92.496 123.625 91.7343C121.457 89.078 119.758 86.4217 118.645 83.9412C117.531 81.4608 116.984 79.1756 116.984 77.1639C116.984 76.1873 117.102 75.2694 117.355 74.3709C117.648 73.2967 117.766 72.2225 117.766 71.1483C117.766 69.6835 117.551 68.1991 117.16 66.6561C116.477 63.9804 115.266 61.1874 113.527 58.414C110.91 54.2733 107.082 50.2108 101.945 47.1639C96.8281 44.1171 90.4219 42.1054 82.9219 42.1249C82.8437 42.1249 82.7461 42.1249 82.6289 42.1249C80.3242 42.164 78.4687 44.0585 78.5078 46.3631C78.5469 48.6678 80.4414 50.5233 82.7461 50.4843C82.7851 50.4843 82.8437 50.4843 82.9219 50.4843C87.5117 50.4843 91.3984 51.4022 94.7187 52.8475C97.1992 53.9413 99.3672 55.328 101.242 56.91C104.035 59.2733 106.125 62.0467 107.473 64.6639C108.156 65.9725 108.645 67.2421 108.957 68.3554C109.27 69.4686 109.406 70.4647 109.406 71.1679C109.406 71.6366 109.348 71.9686 109.309 72.1249C108.84 73.785 108.625 75.4842 108.625 77.1835C108.625 80.66 109.523 84.0975 111.027 87.3983C112.531 90.6991 114.621 93.9217 117.121 97.0077C117.238 97.1639 117.355 97.3007 117.453 97.4179C116.848 97.6522 116.066 97.8866 115.227 98.2186C114.68 98.4334 114.094 98.6678 113.488 99.0194C112.863 99.3709 112.199 99.8006 111.535 100.484C111.008 101.031 110.52 101.676 110.168 102.437C109.816 103.199 109.602 104.098 109.602 104.957C109.602 105.699 109.738 106.383 109.953 106.969C110.324 107.984 110.812 108.648 111.203 109.176C111.437 109.469 111.633 109.683 111.809 109.879C111.73 109.937 111.652 110.015 111.555 110.094C111.184 110.406 110.617 110.797 109.777 111.246L109.211 111.558L108.762 112.027C108.488 112.32 108.117 112.769 107.844 113.394C107.551 114.019 107.375 114.82 107.375 115.66C107.375 116.5 107.551 117.34 107.863 118.16C107.902 118.258 107.941 118.355 107.98 118.433C107.395 118.668 106.828 118.98 106.301 119.371C105.715 119.801 105.207 120.328 104.797 120.914C104.191 121.793 103.859 122.75 103.703 123.551C103.547 124.371 103.527 125.055 103.508 125.64C103.508 126.539 103.566 127.242 103.566 127.789C103.566 128.355 103.527 128.766 103.449 129.039C103.371 129.312 103.293 129.508 103.02 129.82C103 129.84 102.902 129.957 102.57 130.113C102.102 130.348 101.164 130.641 99.9141 130.797C98.6641 130.973 97.1211 131.051 95.4219 131.051C93.1758 131.051 90.6172 130.914 87.9609 130.758C86.6328 130.68 85.2851 130.601 83.918 130.523C83.9961 126.812 84.1133 121.285 84.1133 117.047C84.1133 115.348 84.0938 113.863 84.0547 112.73C84.0352 112.144 83.9961 111.676 83.9375 111.187C83.9179 111.07 83.8984 110.933 83.8789 110.777C83.8594 110.66 83.8398 110.543 83.8008 110.387C83.7812 110.269 83.7422 110.133 83.6836 109.976C83.6445 109.859 83.5859 109.703 83.4883 109.508C83.4297 109.371 83.332 109.215 83.2148 109.019C83.0195 108.726 82.7461 108.355 82.1992 107.926C81.9258 107.711 81.5742 107.496 81.125 107.34C80.6953 107.183 80.168 107.066 79.6602 107.066C79.0547 107.066 78.4883 107.203 78.0195 107.398C77.5703 107.594 77.2187 107.828 76.9648 108.043C75.6172 109.156 75.1484 110.953 75.6562 112.535C75.6562 112.574 75.6562 112.613 75.6562 112.672C75.6758 113.101 75.6953 113.726 75.7148 114.488C75.7344 115.23 75.7344 116.109 75.7344 117.066C75.7344 120.445 75.6562 124.801 75.5977 128.297C75.5586 130.035 75.5195 131.578 75.5 132.672C75.4805 133.219 75.4805 133.648 75.4609 133.961C75.4609 134.254 75.4414 134.43 75.4414 134.43L75.3242 138.57L79.4648 138.726C82.0234 138.824 84.7187 139 87.4336 139.156C90.1289 139.312 92.8242 139.469 95.3828 139.469C98 139.469 100.461 139.332 102.805 138.824C103.977 138.57 105.109 138.219 106.203 137.691C107.297 137.164 108.371 136.422 109.27 135.387C110.363 134.137 111.086 132.711 111.457 131.383C111.828 130.055 111.887 128.844 111.906 127.867C111.906 127.066 111.867 126.402 111.848 125.953C112.375 125.758 112.902 125.543 113.391 125.269C113.898 124.996 114.367 124.664 114.816 124.273C115.48 123.687 116.066 122.926 116.457 122.086C116.848 121.246 117.004 120.348 116.984 119.566C116.984 118.766 116.848 118.101 116.672 117.535C116.613 117.32 116.535 117.125 116.457 116.93C116.496 116.91 116.535 116.871 116.574 116.851C117.199 116.363 117.785 115.836 118.273 115.25C119.035 114.39 119.621 113.414 119.992 112.379C120.363 111.363 120.52 110.308 120.52 109.39C120.52 108.57 120.324 107.848 120.109 107.301C119.914 106.812 119.68 106.422 119.465 106.09C119.367 105.953 119.289 105.836 119.191 105.719C119.543 105.601 119.934 105.465 120.363 105.308C120.871 105.113 121.418 104.898 122.004 104.625C122.434 104.41 122.902 104.176 123.371 103.844C124.074 103.375 124.836 102.711 125.441 101.754C125.754 101.285 126.008 100.719 126.184 100.133C126.359 99.5467 126.437 98.9217 126.437 98.3163C126.477 97.6132 126.379 97.0077 126.223 96.4217Z" fill="white"/>
<path d="M79.6406 100.973C85.8107 100.973 90.8125 95.9708 90.8125 89.8008C90.8125 83.6307 85.8107 78.6289 79.6406 78.6289C73.4706 78.6289 68.4688 83.6307 68.4688 89.8008C68.4688 95.9708 73.4706 100.973 79.6406 100.973Z" fill="#FFC849"/>
<path d="M17.5313 75.0349H0.519536C0.324224 75.0349 0.148438 74.8786 0.148438 74.6638V68.3943C0.148438 68.199 0.304692 68.0232 0.519536 68.0232H17.5313C17.7266 68.0232 17.9023 68.1794 17.9023 68.3943V74.6638C17.9023 74.8591 17.7266 75.0349 17.5313 75.0349Z" fill="white"/>
<path d="M71.125 17.4375V0.386724C71.125 0.191411 71.2813 0.015625 71.4961 0.015625H77.7656C77.961 0.015625 78.1367 0.17188 78.1367 0.386724V17.4375C78.1367 17.6328 77.9805 17.8086 77.7656 17.8086H71.4961C71.3008 17.8086 71.125 17.6328 71.125 17.4375Z" fill="white"/>
<path d="M32.0635 33.6484L19.9932 21.5781C19.8564 21.4414 19.8564 21.2071 19.9932 21.0508L24.4268 16.6172C24.5635 16.4805 24.7978 16.4805 24.9541 16.6172L37.0244 28.6875C37.1611 28.8243 37.1611 29.0586 37.0244 29.2149L32.5908 33.6484C32.4346 33.7852 32.2002 33.7852 32.0635 33.6484Z" fill="white"/>
<path d="M131.828 75.0351H148.762C148.957 75.0351 149.133 74.8789 149.133 74.6641V68.3945C149.133 68.1992 148.977 68.0234 148.762 68.0234H131.828C131.633 68.0234 131.457 68.1797 131.457 68.3945V74.6641C131.457 74.8594 131.613 75.0351 131.828 75.0351Z" fill="white"/>
<path d="M117.278 33.6484L129.329 21.5977C129.466 21.461 129.466 21.2265 129.329 21.0703L124.896 16.6367C124.759 16.5 124.524 16.5 124.368 16.6367L112.317 28.6875C112.181 28.8242 112.181 29.0586 112.317 29.2148L116.751 33.6484C116.907 33.7851 117.142 33.7851 117.278 33.6484Z" fill="white"/>
<path d="M482.104 82.4569C477.162 84.41 472.885 87.0662 469.33 90.4061C465.795 93.7459 462.982 97.7303 460.932 102.301C458.881 106.89 457.846 111.734 457.846 116.754V117.047V117.496C457.846 122.574 458.861 127.379 460.912 131.871C460.912 131.89 460.932 131.91 460.932 131.91C460.932 131.93 460.951 131.949 460.951 131.949C462.787 136.422 465.541 140.348 469.174 143.668C469.174 143.668 469.193 143.668 469.193 143.687C469.193 143.687 469.193 143.687 469.213 143.687C472.846 147.105 477.123 149.762 481.947 151.617C481.947 151.617 481.967 151.617 481.967 151.637H481.986C485.092 152.887 488.646 153.765 492.65 154.273C494.037 154.449 495.268 153.375 495.268 151.969V140.816C495.268 139.683 494.467 138.726 493.354 138.531C491.908 138.258 490.561 137.867 489.35 137.359C486.615 136.207 484.252 134.605 482.221 132.574L482.201 132.555L482.182 132.535C480.287 130.719 478.764 128.472 477.592 125.699C476.518 122.926 475.99 120.152 475.99 117.34V117.047V116.597C475.99 113.707 476.498 110.933 477.533 108.199C477.553 108.14 477.592 108.062 477.611 108.004C478.881 105.172 480.404 103.004 482.123 101.441L482.182 101.383L482.24 101.324C484.154 99.3319 486.4 97.8084 489.115 96.7537L489.154 96.7342L489.193 96.7147C490.893 95.9725 492.299 95.5624 493.275 95.4061C494.408 95.2303 495.248 94.2537 495.248 93.1014V82.1053C495.248 80.699 494.018 79.6248 492.611 79.8006C488.725 80.3084 485.229 81.1874 482.104 82.4569Z" fill="white"/>
<path d="M528.35 90.2694C528.33 90.2498 528.33 90.2498 528.33 90.2498C524.893 86.8904 520.654 84.2928 515.732 82.4569C512.803 81.1873 509.346 80.3084 505.361 79.8201C503.975 79.6444 502.744 80.7186 502.744 82.1248V93.2771C502.744 94.2928 503.408 95.2108 504.385 95.5037L506.318 96.0896C507.158 96.3436 507.822 96.5584 508.291 96.7342C508.35 96.7537 508.408 96.7733 508.486 96.8124C511.162 97.9647 513.467 99.5272 515.479 101.539L515.498 101.558L515.518 101.578C517.412 103.394 518.936 105.64 520.107 108.394C521.182 111.168 521.709 113.941 521.709 116.754V117.047V117.496C521.709 120.387 521.201 123.16 520.166 125.894C520.147 125.953 520.107 126.031 520.088 126.09C518.818 128.922 517.295 131.09 515.576 132.652L515.518 132.711L515.459 132.769C513.545 134.762 511.299 136.285 508.584 137.34L508.564 137.359L508.525 137.379C507.275 137.906 505.986 138.297 504.639 138.551C503.545 138.765 502.764 139.722 502.764 140.836V151.988C502.764 153.394 503.994 154.469 505.381 154.293C508.799 153.883 512.178 153.004 515.557 151.656H515.576C520.244 149.879 524.502 147.222 528.33 143.726L528.35 143.707L528.369 143.687C532.08 140.094 534.893 136.129 536.748 131.812V131.793V131.773C538.799 127.203 539.834 122.359 539.834 117.359V117.066V116.617C539.834 111.519 538.799 106.676 536.729 102.164C534.678 97.5741 531.885 93.6092 528.35 90.2694Z" fill="white"/>
<path d="M643.213 105.875V151.969C643.213 153.238 644.248 154.254 645.537 154.254H658.975C660.264 154.254 661.299 153.238 661.299 151.969V105.875C661.299 104.605 660.264 103.59 658.975 103.59H645.537C644.248 103.59 643.213 104.625 643.213 105.875Z" fill="white"/>
<path d="M619.074 81.4999V94.1171C619.074 95.0546 619.836 95.8163 620.773 95.8163H658.977H683.742C684.68 95.8163 685.441 95.0546 685.441 94.1171V81.4999C685.441 80.5624 684.68 79.8007 683.742 79.8007H620.793C619.836 79.7811 619.074 80.5428 619.074 81.4999Z" fill="white"/>
<path d="M550.891 110.328C549.621 110.328 548.605 111.363 548.605 112.652V125.992V151.949C548.605 153.238 549.621 154.273 550.891 154.273H562.863C564.133 154.273 565.148 153.238 565.148 151.949V128.316C565.148 127.027 566.164 125.992 567.434 125.992H601.457C602.727 125.992 603.742 124.957 603.742 123.668V112.672C603.742 111.383 602.727 110.348 601.457 110.348H565.148H550.891V110.328Z" fill="white"/>
<path d="M548.625 82.1054V93.2187C548.625 94.5078 549.66 95.5429 550.949 95.5429H607.883C609.172 95.5429 610.207 94.5078 610.207 93.2187V82.1054C610.207 80.8164 609.172 79.7812 607.883 79.7812H550.93C549.66 79.7812 548.625 80.8164 548.625 82.1054Z" fill="white"/>
<path d="M409.484 82.6524C404.328 84.5664 399.797 87.2422 395.93 90.6601C395.93 90.6601 395.93 90.6601 395.91 90.6797L395.891 90.6992C392.102 93.9805 389.094 98.1406 386.945 103.082C385.109 107.32 384.094 111.93 383.859 116.852V116.91V120.016C383.859 122.184 385.559 123.941 387.648 123.941H398.84C400.93 123.941 402.629 122.184 402.629 120.016V117.223C402.629 117.125 402.629 117.008 402.648 116.91C402.863 113.766 403.41 111.344 404.191 109.645V109.625V109.605C405.305 107.047 406.828 104.742 408.762 102.672C408.879 102.555 409.016 102.418 409.133 102.32C411.535 100.27 413.996 98.7851 416.496 97.8086C419.523 96.6953 422.883 96.1289 426.613 96.1289H445.363C447.453 96.1289 449.152 94.3711 449.152 92.2031V83.6875C449.152 81.5196 447.453 79.7617 445.363 79.7617H426.613C420.5 79.7812 414.777 80.7383 409.484 82.6524Z" fill="white"/>
<path d="M430.381 113.492V117.926C430.381 120.367 430.107 122.828 429.346 125.133C429.189 125.621 428.994 126.09 428.818 126.559C427.549 129.234 425.967 131.363 424.092 133.023C421.982 134.898 419.482 136.344 416.533 137.398C413.486 138.434 410.127 138.961 406.416 138.961H386.201C384.912 138.961 383.877 139.977 383.877 141.207V151.988C383.877 153.238 384.912 154.234 386.201 154.234H406.416C412.529 154.234 418.252 153.355 423.545 151.559H423.564C428.721 149.781 433.252 147.262 437.119 144.039L437.139 144.02L437.158 144C441.084 140.543 444.053 136.715 446.025 132.535C446.025 132.516 446.025 132.516 446.045 132.496C446.045 132.477 446.064 132.477 446.064 132.457C448.135 128.375 449.17 120.953 449.15 116.148V113.453C449.15 112.203 448.115 111.207 446.826 111.207H432.705C431.416 111.246 430.381 112.262 430.381 113.492Z" fill="white"/>
<path d="M184.934 125.191C184.934 127.301 184.68 129.078 184.231 130.504C183.801 131.852 183.215 132.887 182.493 133.707C182.434 133.785 182.356 133.844 182.278 133.922C181.419 134.703 180.461 135.289 179.368 135.699C178.215 136.129 176.887 136.363 175.364 136.363C172.669 136.363 170.364 135.797 168.313 134.684C168.235 134.644 168.157 134.605 168.079 134.547C165.579 132.945 163.606 131.148 162.122 129.195C161.282 128.102 159.7 127.965 158.684 128.902L149.856 137.125C148.958 137.965 148.86 139.352 149.641 140.309C152.415 143.687 155.852 146.5 159.934 148.785L159.954 148.805L159.973 148.824C164.426 151.187 169.641 152.32 175.52 152.32C179.387 152.32 183.079 151.754 186.536 150.582C189.993 149.43 192.981 147.75 195.403 145.543L195.422 145.523L195.442 145.504C197.903 143.141 199.817 140.328 201.106 137.125V137.105C201.106 137.086 201.126 137.086 201.126 137.066C202.551 133.785 203.215 129.957 203.215 125.641V80.1523C203.215 78.8632 202.18 77.8281 200.891 77.8281H187.239C185.95 77.8281 184.915 78.8632 184.915 80.1523V125.191H184.934Z" fill="white"/>
<path d="M235.891 80.5038C230.949 82.4569 226.672 85.1131 223.117 88.4529C219.582 91.7928 216.77 95.7772 214.719 100.348C212.668 104.937 211.633 109.781 211.633 114.801V115.094V115.543C211.633 120.621 212.648 125.426 214.699 129.918C214.699 129.937 214.719 129.957 214.719 129.957C214.719 129.976 214.738 129.996 214.738 129.996C216.574 134.469 219.328 138.394 222.961 141.715C222.961 141.715 222.98 141.715 222.98 141.734C222.98 141.734 222.98 141.734 223 141.734C226.633 145.152 230.91 147.808 235.734 149.664C235.734 149.664 235.754 149.664 235.754 149.683H235.773C238.879 150.933 242.434 151.812 246.438 152.32C247.824 152.496 249.055 151.422 249.055 150.015V138.863C249.055 137.73 248.254 136.773 247.141 136.578C245.695 136.305 244.348 135.914 243.137 135.406C240.402 134.254 238.039 132.652 236.008 130.621L235.988 130.601L235.969 130.582C234.074 128.765 232.551 126.519 231.379 123.746C230.305 120.972 229.777 118.199 229.777 115.387V115.094V114.644C229.777 111.754 230.285 108.98 231.32 106.246C231.34 106.187 231.379 106.109 231.398 106.051C232.668 103.219 234.191 101.051 235.91 99.4881L235.969 99.4296L236.027 99.371C237.941 97.3788 240.187 95.8553 242.902 94.8006L242.941 94.7811L242.98 94.7616C244.68 94.0194 246.086 93.6092 247.062 93.453C248.195 93.2772 249.035 92.3006 249.035 91.1483V80.1522C249.035 78.7459 247.805 77.6717 246.398 77.8475C242.512 78.3553 238.996 79.2342 235.891 80.5038Z" fill="white"/>
<path d="M282.141 88.3162C282.121 88.2967 282.121 88.2967 282.121 88.2967C278.684 84.9373 274.445 82.3397 269.523 80.5037C266.594 79.2342 263.137 78.3553 259.152 77.867C257.766 77.6912 256.535 78.7654 256.535 80.1717V91.324C256.535 92.3396 257.199 93.2576 258.176 93.5506L260.109 94.1365C260.949 94.3904 261.613 94.6053 262.082 94.7811C262.141 94.8006 262.199 94.8202 262.277 94.8592C264.953 96.0116 267.258 97.574 269.27 99.5858L269.289 99.6053L269.309 99.6248C271.203 101.441 272.727 103.687 273.898 106.441C274.973 109.215 275.5 111.988 275.5 114.801V115.094V115.543C275.5 118.433 274.992 121.207 273.957 123.941C273.937 124 273.898 124.078 273.879 124.137C272.609 126.969 271.086 129.137 269.367 130.699L269.309 130.758L269.25 130.816C267.336 132.808 265.09 134.332 262.375 135.387L262.355 135.406L262.316 135.426C261.066 135.953 259.777 136.344 258.43 136.597C257.336 136.812 256.555 137.769 256.555 138.883V150.035C256.555 151.441 257.785 152.515 259.172 152.34C262.59 151.93 265.969 151.051 269.348 149.703H269.367C274.035 147.926 278.293 145.269 282.121 141.773L282.141 141.754L282.16 141.734C285.871 138.14 288.684 134.176 290.539 129.859V129.84V129.82C292.59 125.25 293.625 120.406 293.625 115.406V115.113V114.664C293.625 109.566 292.59 104.722 290.52 100.211C288.469 95.6209 285.676 91.6561 282.141 88.3162Z" fill="white"/>
<path d="M306.322 77.8281H291.439C289.564 77.8281 288.47 79.9375 289.544 81.4805L318.451 122.516C318.724 122.906 318.88 123.375 318.88 123.844V149.996C318.88 151.285 319.915 152.32 321.205 152.32H335.755C337.044 152.32 338.08 151.285 338.08 149.996V122.555C338.08 121.773 337.845 121.012 337.396 120.367L308.236 78.8047C307.787 78.1992 307.083 77.8281 306.322 77.8281Z" fill="white"/>
<path d="M351.397 78.746L333.799 100.191C333.154 101.051 333.154 102.223 333.838 103.062L341.67 112.711C342.627 113.883 344.443 113.844 345.342 112.613L369.014 81.5194C370.127 79.9959 369.033 77.8475 367.139 77.8475H353.233C352.51 77.828 351.826 78.16 351.397 78.746Z" fill="white"/>
</svg>
