<svg width="148" height="40" viewBox="0 0 148 40" fill="none" xmlns="http://www.w3.org/2000/svg">
<path d="M17.7841 31.9528C17.8261 32.5654 17.3814 32.9052 16.5758 32.9136C16.0598 32.9178 15.548 32.9136 15.0319 32.9136V32.9094C14.4907 32.9094 13.9495 32.9262 13.4124 32.9052C12.2335 32.8633 11.2224 32.0787 11.084 30.9291C10.7148 27.8832 9.49806 25.1268 8.13033 22.4501C7.00594 20.2516 6.35983 18.0322 6.61995 15.5569C7.14439 10.6272 11.3651 6.56595 16.2696 6.31002C16.4668 6.29744 16.9157 6.28485 16.9241 6.28485C17.4317 6.28485 17.8429 6.69601 17.8429 7.20366C17.8429 7.67356 17.4905 8.05535 17.0415 8.10989C16.9954 8.12248 16.2486 8.19379 15.0781 8.49587C9.8295 9.84262 6.96818 15.6198 9.2799 20.5201C9.32185 20.6124 9.368 20.7047 9.41415 20.7929C10.9749 23.8346 12.4139 26.9476 12.888 30.3921C12.9551 30.8746 13.2278 31.034 13.681 31.0298C14.6585 31.0215 15.6361 31.0424 16.6136 31.0256C17.2765 31.0173 17.738 31.2396 17.7841 31.9528Z" fill="#B469FF"/>
<path d="M16.9833 36.6686C15.5191 36.6686 14.0549 36.6728 12.5906 36.6686C11.8061 36.6644 11.4327 36.3623 11.4285 35.7581C11.4243 35.154 11.8061 34.8225 12.5781 34.8225C15.5569 34.8142 18.5398 34.8142 21.5186 34.8225C22.278 34.8267 22.6724 35.175 22.6388 35.7875C22.6011 36.4798 22.148 36.6812 21.5312 36.6812C20.0125 36.6728 18.4979 36.6728 16.9833 36.6686C16.9833 36.6728 16.9833 36.6728 16.9833 36.6686Z" fill="#B469FF"/>
<path d="M17.0047 39.9998C16.3125 39.9998 15.6202 39.9956 14.9279 39.9998C14.286 40.0082 13.8623 39.7271 13.8665 39.0684C13.8707 38.4601 14.2693 38.1496 14.8734 38.1454C16.3083 38.137 17.7431 38.137 19.178 38.1412C19.7737 38.1454 20.1849 38.4307 20.1975 39.0474C20.2101 39.7061 19.8073 40.004 19.157 39.9998C18.4396 39.9956 17.7221 39.9998 17.0047 39.9998Z" fill="#B469FF"/>
<path d="M27.0819 20.7089C27.0315 20.5243 26.956 20.3523 26.8637 20.1887C26.7714 20.025 26.6581 19.8656 26.5239 19.702C26.0582 19.1314 25.6932 18.5608 25.454 18.028C25.2149 17.4951 25.0974 17.0043 25.0974 16.5721C25.0974 16.3624 25.1226 16.1652 25.1771 15.9722C25.2401 15.7414 25.2652 15.5107 25.2652 15.2799C25.2652 14.9653 25.2191 14.6464 25.1352 14.315C24.9883 13.7402 24.7282 13.1402 24.3548 12.5445C23.7926 11.655 22.9703 10.7824 21.8669 10.1279C20.7677 9.47337 19.3915 9.04124 17.7805 9.04544C17.7637 9.04544 17.7427 9.04544 17.7175 9.04544C17.2225 9.05383 16.8239 9.46079 16.8323 9.95585C16.8407 10.4509 17.2477 10.8495 17.7427 10.8411C17.7511 10.8411 17.7637 10.8411 17.7805 10.8411C18.7664 10.8411 19.6013 11.0383 20.3146 11.3488C20.8474 11.5837 21.3131 11.8816 21.7158 12.2214C22.3158 12.7291 22.7647 13.3248 23.0542 13.887C23.201 14.1681 23.3059 14.4408 23.3731 14.68C23.4402 14.9191 23.4696 15.1331 23.4696 15.2841C23.4696 15.3848 23.457 15.4561 23.4486 15.4897C23.3479 15.8463 23.3017 16.2113 23.3017 16.5763C23.3017 17.3231 23.4947 18.0615 23.8178 18.7706C24.1408 19.4796 24.5898 20.1719 25.1268 20.8348C25.152 20.8683 25.1771 20.8977 25.1981 20.9229C25.068 20.9732 24.9002 21.0235 24.7198 21.0949C24.6023 21.141 24.4765 21.1914 24.3464 21.2669C24.2122 21.3424 24.0695 21.4347 23.9269 21.5815C23.8136 21.699 23.7087 21.8375 23.6332 22.0011C23.5577 22.1647 23.5115 22.3577 23.5115 22.5423C23.5115 22.7017 23.5409 22.8486 23.587 22.9745C23.6667 23.1926 23.7716 23.3353 23.8555 23.4485C23.9059 23.5115 23.9478 23.5576 23.9856 23.5996C23.9688 23.6122 23.952 23.629 23.9311 23.6457C23.8513 23.7129 23.7297 23.7968 23.5493 23.8933L23.4276 23.9604L23.3311 24.0611C23.2724 24.124 23.1927 24.2205 23.1339 24.3548C23.071 24.489 23.0332 24.661 23.0332 24.8414C23.0332 25.0219 23.071 25.2023 23.1381 25.3785C23.1465 25.3994 23.1549 25.4204 23.1633 25.4372C23.0374 25.4875 22.9158 25.5547 22.8025 25.6386C22.6766 25.7309 22.5675 25.8442 22.4794 25.97C22.3494 26.1588 22.278 26.3644 22.2445 26.5364C22.2109 26.7126 22.2067 26.8595 22.2025 26.9853C22.2025 27.1783 22.2151 27.3294 22.2151 27.4468C22.2151 27.5685 22.2067 27.6566 22.1899 27.7154C22.1732 27.7741 22.1564 27.816 22.0976 27.8832C22.0934 27.8874 22.0725 27.9125 22.0011 27.9461C21.9004 27.9965 21.6991 28.0594 21.4306 28.093C21.162 28.1307 20.8306 28.1475 20.4656 28.1475C19.9831 28.1475 19.4335 28.1181 18.8629 28.0846C18.5776 28.0678 18.2881 28.051 17.9944 28.0342C18.0112 27.2371 18.0364 26.0497 18.0364 25.1393C18.0364 24.7743 18.0322 24.4555 18.0238 24.2121C18.0196 24.0863 18.0112 23.9856 17.9986 23.8807C17.9944 23.8555 17.9903 23.8261 17.9861 23.7926C17.9819 23.7674 17.9777 23.7422 17.9693 23.7087C17.9651 23.6835 17.9567 23.6541 17.9441 23.6206C17.9357 23.5954 17.9231 23.5618 17.9021 23.5199C17.8896 23.4905 17.8686 23.4569 17.8434 23.415C17.8015 23.3521 17.7427 23.2723 17.6252 23.18C17.5665 23.1339 17.491 23.0877 17.3945 23.0542C17.3022 23.0206 17.1889 22.9954 17.0798 22.9954C16.9498 22.9954 16.8281 23.0248 16.7274 23.0668C16.6309 23.1087 16.5554 23.1591 16.5009 23.2052C16.2114 23.4444 16.1107 23.8303 16.2198 24.1702C16.2198 24.1786 16.2198 24.187 16.2198 24.1995C16.224 24.2918 16.2282 24.4261 16.2323 24.5897C16.2365 24.7491 16.2365 24.9379 16.2365 25.1435C16.2365 25.8693 16.2198 26.8049 16.2072 27.5559C16.1988 27.9293 16.1904 28.2608 16.1862 28.4957C16.182 28.6132 16.182 28.7055 16.1778 28.7726C16.1778 28.8356 16.1736 28.8733 16.1736 28.8733L16.1484 29.7627L17.0379 29.7963C17.5875 29.8173 18.1665 29.8551 18.7496 29.8886C19.3286 29.9222 19.9076 29.9557 20.4572 29.9557C21.0194 29.9557 21.548 29.9264 22.0515 29.8173C22.3032 29.7628 22.5466 29.6872 22.7815 29.574C23.0164 29.4607 23.2472 29.3013 23.4402 29.0789C23.6751 28.8104 23.8304 28.5041 23.9101 28.2188C23.9898 27.9335 24.0024 27.6734 24.0066 27.4636C24.0066 27.2916 23.9982 27.149 23.994 27.0525C24.1073 27.0105 24.2206 26.9644 24.3254 26.9056C24.4345 26.8469 24.5352 26.7756 24.6317 26.6917C24.7744 26.5658 24.9002 26.4022 24.9841 26.2218C25.068 26.0413 25.1016 25.8484 25.0974 25.6805C25.0974 25.5085 25.068 25.3659 25.0303 25.2442C25.0177 25.1981 25.0009 25.1561 24.9841 25.1142C24.9925 25.11 25.0009 25.1016 25.0093 25.0974C25.1436 24.9925 25.2694 24.8792 25.3743 24.7533C25.5379 24.5687 25.6638 24.359 25.7435 24.1366C25.8232 23.9184 25.8568 23.6919 25.8568 23.4947C25.8568 23.3185 25.8148 23.1633 25.7687 23.0458C25.7267 22.9409 25.6764 22.857 25.6302 22.7857C25.6093 22.7563 25.5925 22.7311 25.5715 22.7059C25.647 22.6808 25.7309 22.6514 25.8232 22.6178C25.9323 22.5759 26.0498 22.5297 26.1756 22.471C26.268 22.4249 26.3686 22.3745 26.4693 22.3032C26.6204 22.2025 26.784 22.0598 26.9141 21.8543C26.9812 21.7536 27.0357 21.6319 27.0735 21.506C27.1112 21.3802 27.128 21.2459 27.128 21.1159C27.1364 20.9648 27.1154 20.8348 27.0819 20.7089Z" fill="#B469FF"/>
<path d="M17.0756 21.6865C18.401 21.6865 19.4754 20.612 19.4754 19.2867C19.4754 17.9613 18.401 16.8868 17.0756 16.8868C15.7502 16.8868 14.6758 17.9613 14.6758 19.2867C14.6758 20.612 15.7502 21.6865 17.0756 21.6865Z" fill="#FFC849"/>
<path d="M3.73398 16.1148H0.0797153C0.0377604 16.1148 0 16.0813 0 16.0351V14.6884C0 14.6464 0.0335649 14.6086 0.0797153 14.6086H3.73398C3.77594 14.6086 3.8137 14.6422 3.8137 14.6884V16.0351C3.8137 16.0771 3.77594 16.1148 3.73398 16.1148Z" fill="#B469FF"/>
<path d="M15.2465 3.74238V0.0797153C15.2465 0.0377604 15.28 0 15.3262 0H16.6729C16.7149 0 16.7526 0.0335649 16.7526 0.0797153V3.74238C16.7526 3.78434 16.7191 3.8221 16.6729 3.8221H15.3262C15.2842 3.8221 15.2465 3.78434 15.2465 3.74238Z" fill="#B469FF"/>
<path d="M6.85568 7.22462L4.26287 4.63181C4.2335 4.60244 4.2335 4.5521 4.26287 4.51854L5.21525 3.56615C5.24461 3.53679 5.29496 3.53679 5.32852 3.56615L7.92133 6.15898C7.9507 6.18834 7.9507 6.23869 7.92133 6.27225L6.96896 7.22462C6.9354 7.25399 6.88505 7.25399 6.85568 7.22462Z" fill="#B469FF"/>
<path d="M28.286 16.1149H31.9235C31.9655 16.1149 32.0032 16.0813 32.0032 16.0352V14.6884C32.0032 14.6465 31.9697 14.6087 31.9235 14.6087H28.286C28.2441 14.6087 28.2063 14.6423 28.2063 14.6884V16.0352C28.2063 16.0771 28.2399 16.1149 28.286 16.1149Z" fill="#B469FF"/>
<path d="M25.1606 7.22463L27.7492 4.63602C27.7785 4.60666 27.7785 4.5563 27.7492 4.52274L26.7968 3.57037C26.7674 3.541 26.7171 3.541 26.6835 3.57037L24.0949 6.15899C24.0655 6.18836 24.0655 6.2387 24.0949 6.27226L25.0473 7.22463C25.0808 7.254 25.1312 7.254 25.1606 7.22463Z" fill="#B469FF"/>
<path d="M103.528 17.7091C102.467 18.1287 101.548 18.6992 100.784 19.4167C100.025 20.1341 99.4209 20.99 98.9804 21.9717C98.5399 22.9577 98.3175 23.9981 98.3175 25.0764V25.1393V25.2358C98.3175 26.3266 98.5357 27.3587 98.9762 28.3237C98.9762 28.3279 98.9804 28.3321 98.9804 28.3321C98.9804 28.3363 98.9846 28.3405 98.9846 28.3405C99.379 29.3012 99.9705 30.1445 100.751 30.8578C100.751 30.8578 100.755 30.8578 100.755 30.862C100.755 30.862 100.755 30.862 100.759 30.862C101.54 31.5962 102.458 32.1668 103.495 32.5653C103.495 32.5653 103.499 32.5653 103.499 32.5695H103.503C104.17 32.838 104.934 33.0268 105.794 33.1359C106.092 33.1737 106.356 32.9429 106.356 32.6408V30.2452C106.356 30.0019 106.184 29.7963 105.945 29.7543C105.634 29.6956 105.345 29.6117 105.085 29.5026C104.497 29.2551 103.99 28.9111 103.553 28.4747L103.549 28.4705L103.545 28.4663C103.138 28.0762 102.811 27.5937 102.559 26.9979C102.328 26.4022 102.215 25.8064 102.215 25.2022V25.1393V25.0428C102.215 24.4219 102.324 23.8261 102.547 23.2388C102.551 23.2262 102.559 23.2094 102.563 23.1968C102.836 22.5885 103.163 22.1228 103.532 21.7871L103.545 21.7745L103.558 21.762C103.969 21.334 104.451 21.0068 105.034 20.7802L105.043 20.776L105.051 20.7718C105.416 20.6124 105.718 20.5243 105.928 20.4907C106.171 20.453 106.352 20.2432 106.352 19.9956V17.6336C106.352 17.3315 106.088 17.1008 105.785 17.1385C104.951 17.2476 104.2 17.4364 103.528 17.7091Z" fill="#B469FF"/>
<path d="M113.462 19.3873C113.458 19.3831 113.458 19.3831 113.458 19.3831C112.72 18.6615 111.809 18.1035 110.752 17.7091C110.123 17.4364 109.38 17.2476 108.524 17.1427C108.226 17.1049 107.962 17.3357 107.962 17.6378V20.0334C107.962 20.2515 108.105 20.4487 108.315 20.5117L108.73 20.6375C108.91 20.6921 109.053 20.7382 109.154 20.776C109.166 20.7802 109.179 20.7844 109.196 20.7928C109.77 21.0403 110.265 21.3759 110.698 21.8081L110.702 21.8123L110.706 21.8165C111.113 22.2066 111.44 22.6891 111.692 23.2807C111.923 23.8765 112.036 24.4722 112.036 25.0764V25.1393V25.2358C112.036 25.8567 111.927 26.4525 111.705 27.0398C111.7 27.0524 111.692 27.0692 111.688 27.0818C111.415 27.6902 111.088 28.1558 110.719 28.4915L110.706 28.5041L110.693 28.5167C110.282 28.9446 109.8 29.2719 109.217 29.4984L109.212 29.5026L109.204 29.5068C108.936 29.6201 108.659 29.704 108.369 29.7585C108.134 29.8047 107.966 30.0103 107.966 30.2494V32.645C107.966 32.9471 108.231 33.1779 108.529 33.1401C109.263 33.052 109.989 32.8632 110.714 32.5737H110.719C111.721 32.1919 112.636 31.6213 113.458 30.8703L113.462 30.8661L113.467 30.8619C114.264 30.09 114.868 29.2383 115.267 28.3111V28.3069V28.3027C115.707 27.321 115.929 26.2805 115.929 25.2064V25.1435V25.047C115.929 23.952 115.707 22.9115 115.262 21.9423C114.822 20.9564 114.222 20.1047 113.462 19.3873Z" fill="#B469FF"/>
<path d="M138.136 22.7395V32.6409C138.136 32.9136 138.358 33.1317 138.635 33.1317H141.522C141.799 33.1317 142.021 32.9136 142.021 32.6409V22.7395C142.021 22.4668 141.799 22.2486 141.522 22.2486H138.635C138.358 22.2486 138.136 22.471 138.136 22.7395Z" fill="#B469FF"/>
<path d="M132.951 17.5035V20.2138C132.951 20.4152 133.114 20.5788 133.316 20.5788H141.522H146.842C147.043 20.5788 147.207 20.4152 147.207 20.2138V17.5035C147.207 17.3021 147.043 17.1385 146.842 17.1385H133.32C133.114 17.1343 132.951 17.2979 132.951 17.5035Z" fill="#B469FF"/>
<path d="M118.304 23.6961C118.032 23.6961 117.813 23.9184 117.813 24.1953V27.0609V32.6367C117.813 32.9136 118.032 33.1359 118.304 33.1359H120.876C121.149 33.1359 121.367 32.9136 121.367 32.6367V27.5601C121.367 27.2832 121.585 27.0609 121.858 27.0609H129.166C129.439 27.0609 129.657 26.8385 129.657 26.5616V24.1995C129.657 23.9226 129.439 23.7003 129.166 23.7003H121.367H118.304V23.6961Z" fill="#B469FF"/>
<path d="M117.818 17.6336V20.0208C117.818 20.2977 118.04 20.5201 118.317 20.5201H130.547C130.824 20.5201 131.046 20.2977 131.046 20.0208V17.6336C131.046 17.3567 130.824 17.1343 130.547 17.1343H118.313C118.04 17.1343 117.818 17.3567 117.818 17.6336Z" fill="#B469FF"/>
<path d="M87.929 17.7511C86.8214 18.1623 85.8481 18.737 85.0174 19.4712C85.0174 19.4712 85.0174 19.4712 85.0132 19.4754L85.009 19.4796C84.1951 20.1845 83.549 21.0781 83.0875 22.1396C82.6931 23.05 82.4749 24.0401 82.4246 25.0974V25.11V25.7771C82.4246 26.2428 82.7896 26.6203 83.2385 26.6203H85.6425C86.0914 26.6203 86.4564 26.2428 86.4564 25.7771V25.1771C86.4564 25.1561 86.4564 25.1309 86.4606 25.11C86.5068 24.4345 86.6242 23.9143 86.7921 23.5492V23.5451V23.5409C87.0312 22.9913 87.3585 22.4962 87.7738 22.0515C87.799 22.0263 87.8283 21.9969 87.8535 21.9759C88.3696 21.5354 88.8982 21.2166 89.4352 21.0068C90.0855 20.7676 90.8071 20.646 91.6085 20.646H95.6362C96.0851 20.646 96.4501 20.2684 96.4501 19.8027V17.9735C96.4501 17.5078 96.0851 17.1302 95.6362 17.1302H91.6085C90.2953 17.1344 89.066 17.3399 87.929 17.7511Z" fill="#B469FF"/>
<path d="M92.4178 24.3758V25.3281C92.4178 25.8526 92.3591 26.3812 92.1954 26.8763C92.1619 26.9812 92.1199 27.0818 92.0822 27.1825C91.8095 27.7573 91.4696 28.2146 91.0669 28.5712C90.6137 28.974 90.0767 29.2845 89.4432 29.511C88.7887 29.7334 88.0671 29.8467 87.2699 29.8467H82.9276C82.6507 29.8467 82.4283 30.0648 82.4283 30.3292V32.6451C82.4283 32.9136 82.6507 33.1275 82.9276 33.1275H87.2699C88.5831 33.1275 89.8124 32.9388 90.9494 32.5528H90.9536C92.0612 32.171 93.0345 31.6298 93.8652 30.9375L93.8694 30.9333L93.8736 30.9291C94.7169 30.1865 95.3546 29.3642 95.7784 28.4664C95.7784 28.4622 95.7784 28.4622 95.7826 28.458C95.7826 28.4538 95.7868 28.4538 95.7868 28.4496C96.2315 27.5727 96.4539 25.9784 96.4497 24.9463V24.3674C96.4497 24.0989 96.2273 23.8849 95.9504 23.8849H92.9171C92.6402 23.8933 92.4178 24.1114 92.4178 24.3758Z" fill="#B469FF"/>
<path d="M39.6937 26.8889C39.6937 27.342 39.6391 27.7238 39.5426 28.03C39.4503 28.3195 39.3245 28.5419 39.1692 28.7181C39.1566 28.7349 39.1399 28.7475 39.1231 28.7643C38.9385 28.9321 38.7329 29.0579 38.498 29.146C38.2504 29.2383 37.9651 29.2887 37.6379 29.2887C37.0589 29.2887 36.5638 29.167 36.1233 28.9279C36.1065 28.9195 36.0897 28.9111 36.073 28.8985C35.5359 28.5545 35.1122 28.1685 34.7933 27.7489C34.6129 27.514 34.2731 27.4846 34.0549 27.686L32.1586 29.4523C31.9656 29.6327 31.9446 29.9306 32.1124 30.1362C32.7082 30.862 33.4466 31.4661 34.3234 31.957L34.3276 31.9612L34.3318 31.9654C35.2884 32.4731 36.4086 32.7164 37.6714 32.7164C38.5021 32.7164 39.2951 32.5947 40.0377 32.343C40.7803 32.0955 41.4222 31.7347 41.9425 31.2606L41.9466 31.2564L41.9508 31.2522C42.4795 30.7445 42.8906 30.1404 43.1675 29.4523V29.4481C43.1675 29.4439 43.1717 29.4439 43.1717 29.4397C43.478 28.7349 43.6206 27.9126 43.6206 26.9854V17.2141C43.6206 16.9372 43.3983 16.7148 43.1214 16.7148H40.1887C39.9118 16.7148 39.6895 16.9372 39.6895 17.2141V26.8889H39.6937Z" fill="#B469FF"/>
<path d="M50.6395 17.2895C49.578 17.7091 48.6592 18.2796 47.8957 18.9971C47.1363 19.7145 46.5321 20.5704 46.0916 21.5521C45.6511 22.5381 45.4287 23.5786 45.4287 24.6568V24.7197V24.8162C45.4287 25.9071 45.6469 26.9391 46.0874 27.9041C46.0874 27.9083 46.0916 27.9125 46.0916 27.9125C46.0916 27.9167 46.0958 27.9209 46.0958 27.9209C46.4902 28.8817 47.0817 29.7249 47.8621 30.4382C47.8621 30.4382 47.8663 30.4382 47.8663 30.4424C47.8663 30.4424 47.8663 30.4424 47.8705 30.4424C48.6508 31.1766 49.5697 31.7472 50.6059 32.1457C50.6059 32.1457 50.6101 32.1457 50.6101 32.1499H50.6143C51.2814 32.4184 52.045 32.6072 52.9051 32.7163C53.203 32.7541 53.4673 32.5233 53.4673 32.2213V29.8256C53.4673 29.5823 53.2953 29.3767 53.0561 29.3348C52.7456 29.276 52.4562 29.1921 52.196 29.083C51.6087 28.8355 51.101 28.4915 50.6647 28.0551L50.6605 28.0509L50.6563 28.0467C50.2493 27.6566 49.9221 27.1741 49.6703 26.5783C49.4396 25.9826 49.3263 25.3868 49.3263 24.7827V24.7197V24.6232C49.3263 24.0023 49.4354 23.4065 49.6578 22.8192C49.662 22.8066 49.6703 22.7898 49.6745 22.7772C49.9472 22.1689 50.2745 21.7032 50.6437 21.3675L50.6563 21.3549L50.6689 21.3424C51.08 20.9144 51.5625 20.5872 52.1457 20.3606L52.1541 20.3564L52.1625 20.3522C52.5275 20.1928 52.8296 20.1047 53.0393 20.0711C53.2827 20.0334 53.4631 19.8236 53.4631 19.5761V17.214C53.4631 16.9119 53.1988 16.6812 52.8967 16.7189C52.0618 16.828 51.3066 17.0168 50.6395 17.2895Z" fill="#B469FF"/>
<path d="M60.5745 18.9677C60.5703 18.9635 60.5703 18.9635 60.5703 18.9635C59.8319 18.2419 58.9215 17.6839 57.8642 17.2895C57.2349 17.0168 56.4923 16.828 55.6364 16.7231C55.3385 16.6854 55.0742 16.9161 55.0742 17.2182V19.6138C55.0742 19.832 55.2169 20.0292 55.4266 20.0921L55.842 20.218C56.0224 20.2725 56.165 20.3187 56.2657 20.3564C56.2783 20.3606 56.2909 20.3648 56.3077 20.3732C56.8825 20.6208 57.3775 20.9564 57.8097 21.3885L57.8139 21.3927L57.8181 21.3969C58.225 21.7871 58.5523 22.2696 58.804 22.8611C59.0348 23.4569 59.148 24.0527 59.148 24.6568V24.7197V24.8162C59.148 25.4372 59.039 26.0329 58.8166 26.6203C58.8124 26.6329 58.804 26.6497 58.7998 26.6623C58.5271 27.2706 58.1999 27.7363 57.8307 28.0719L57.8181 28.0845L57.8055 28.0971C57.3943 28.525 56.9118 28.8523 56.3287 29.0789L56.3245 29.083L56.3161 29.0872C56.0476 29.2005 55.7707 29.2844 55.4812 29.339C55.2462 29.3851 55.0784 29.5907 55.0784 29.8298V32.2255C55.0784 32.5275 55.3427 32.7583 55.6406 32.7205C56.3748 32.6324 57.1006 32.4436 57.8265 32.1541H57.8307C58.8334 31.7724 59.748 31.2018 60.5703 30.4508L60.5745 30.4466L60.5787 30.4424C61.3758 29.6704 61.98 28.8187 62.3786 27.8915V27.8873V27.8831C62.8191 26.9014 63.0414 25.8609 63.0414 24.7869V24.7239V24.6274C63.0414 23.5324 62.8191 22.4919 62.3744 21.5228C61.9338 20.5368 61.3339 19.6852 60.5745 18.9677Z" fill="#B469FF"/>
<path d="M65.7688 16.7148H62.5719C62.1691 16.7148 61.9341 17.1679 62.1649 17.4993L68.3742 26.314C68.433 26.398 68.4665 26.4987 68.4665 26.5993V32.2171C68.4665 32.494 68.6889 32.7164 68.9658 32.7164H72.0914C72.3683 32.7164 72.5907 32.494 72.5907 32.2171V26.3224C72.5907 26.1546 72.5403 25.991 72.4439 25.8526L66.18 16.9246C66.0835 16.7945 65.9325 16.7148 65.7688 16.7148Z" fill="#B469FF"/>
<path d="M75.4513 16.912L71.6712 21.5186C71.5327 21.7032 71.5327 21.9549 71.6796 22.1353L73.3619 24.2079C73.5675 24.4596 73.9577 24.4512 74.1507 24.1869L79.2356 17.5077C79.4748 17.1805 79.2398 16.719 78.8329 16.719H75.8457C75.6905 16.7148 75.5436 16.7861 75.4513 16.912Z" fill="#B469FF"/>
</svg>
