<svg width="0" height="0" class="hidden">
  <symbol fill="none" xmlns="http://www.w3.org/2000/svg" viewBox="0 0 32 32" id="arrow_close">
    <path d="M10.9332 19.7333L22.0665 8.63333C22.3999 8.3 22.8054 8.12777 23.2832 8.11666C23.761 8.10555 24.1776 8.27777 24.5332 8.63333C24.8665 8.96666 25.0332 9.37777 25.0332 9.86666C25.0332 10.3556 24.8665 10.7667 24.5332 11.1L13.4332 22.2333L22.4999 22.2333C22.9888 22.2333 23.4054 22.4056 23.7499 22.75C24.0943 23.0944 24.2665 23.5111 24.2665 24C24.2665 24.4889 24.0943 24.9056 23.7499 25.25C23.4054 25.5944 22.9888 25.7667 22.4999 25.7667L9.16654 25.7667C8.67765 25.7667 8.26098 25.5944 7.91653 25.25C7.57209 24.9056 7.39987 24.4889 7.39987 24L7.39987 10.6667C7.39987 10.1778 7.57209 9.76111 7.91653 9.41666C8.26098 9.07222 8.67765 8.9 9.16653 8.9C9.65542 8.9 10.0721 9.07222 10.4165 9.41666C10.761 9.76111 10.9332 10.1778 10.9332 10.6667L10.9332 19.7333Z" fill="currentColor"></path>
  </symbol>
  <symbol fill="none" xmlns="http://www.w3.org/2000/svg" viewBox="0 0 32 32" id="arrow_outward">
    <path d="M21.0668 12.2667L9.93346 23.3667C9.60013 23.7 9.19457 23.8722 8.7168 23.8833C8.23902 23.8944 7.82235 23.7222 7.4668 23.3667C7.13346 23.0333 6.9668 22.6222 6.9668 22.1333C6.9668 21.6444 7.13346 21.2333 7.4668 20.9L18.5668 9.76667H9.50013C9.01124 9.76667 8.59457 9.59445 8.25013 9.25C7.90569 8.90556 7.73346 8.48889 7.73346 8C7.73346 7.51112 7.90569 7.09445 8.25013 6.75C8.59457 6.40556 9.01124 6.23334 9.50013 6.23334H22.8335C23.3224 6.23334 23.739 6.40556 24.0835 6.75C24.4279 7.09445 24.6001 7.51112 24.6001 8V21.3333C24.6001 21.8222 24.4279 22.2389 24.0835 22.5833C23.739 22.9278 23.3224 23.1 22.8335 23.1C22.3446 23.1 21.9279 22.9278 21.5835 22.5833C21.239 22.2389 21.0668 21.8222 21.0668 21.3333V12.2667Z" fill="currentColor"></path>
  </symbol>
  <symbol fill="none" xmlns="http://www.w3.org/2000/svg" viewBox="0 0 289 289" id="circle-fill">
    <path d="M276.38 203.088C308.599 130.482 275.833 45.5165 203.196 13.3118C130.558 -18.8929 45.5559 13.8584 13.3372 86.464C-18.8816 159.07 13.8841 244.035 86.5214 276.24C159.159 308.445 244.161 275.693 276.38 203.088Z" fill="currentColor"></path>
  </symbol>
  <symbol fill="none" xmlns="http://www.w3.org/2000/svg" viewBox="0 0 289 289" id="circle-outline">
    <path d="M202.79 14.2258C274.923 46.2068 307.46 130.582 275.466 202.682C243.471 274.783 159.06 307.307 86.927 275.326C14.7944 243.345 -17.7433 158.97 14.2514 86.8693C46.246 14.7688 130.657 -17.7552 202.79 14.2258Z" stroke="currentColor" stroke-width="2"></path>
  </symbol>
  <symbol fill="none" xmlns="http://www.w3.org/2000/svg" viewBox="0 0 24 24" id="facebook">
    <path d="M13.923 6.52174H15.6538C15.8448 6.52174 15.9999 6.34643 15.9999 6.13043V3.49422C15.9999 3.28917 15.8604 3.11857 15.6797 3.10409C15.129 3.05987 14.0532 3 13.2795 3C11.1538 3 9.7692 4.44 9.7692 7.05704V9.65217H7.34615C7.15508 9.65217 7 9.82748 7 10.0435V12.7826C7 12.9986 7.15508 13.1739 7.34615 13.1739H9.7692V20.6087C9.7692 20.8247 9.92428 21 10.1154 21H12.5384C12.7295 21 12.8846 20.8247 12.8846 20.6087V13.1739H15.3845C15.561 13.1739 15.7091 13.024 15.7285 12.8257L15.9978 10.0865C16.0207 9.85487 15.8601 9.65217 15.6538 9.65217H12.8846V7.69565C12.8846 7.04726 13.3494 6.52174 13.923 6.52174Z" fill="currentColor"></path>
  </symbol>
  <symbol fill="none" xmlns="http://www.w3.org/2000/svg" viewBox="0 0 24 24" id="instagram">
    <path d="M8.44737 3C5.44724 3 3 5.44724 3 8.44737V15.5526C3 18.5524 5.44715 21 8.44737 21H15.5526C18.5524 21 21 18.5524 21 15.5526V8.44737C21 5.44715 18.5524 3 15.5526 3H8.44737ZM8.44737 4.42105H15.5526C17.7843 4.42105 19.5789 6.21527 19.5789 8.44737V15.5526C19.5789 17.7842 17.7842 19.5789 15.5526 19.5789H8.44737C6.21527 19.5789 4.42105 17.7843 4.42105 15.5526V8.44737C4.42105 6.21518 6.21518 4.42105 8.44737 4.42105ZM16.7368 6.31579C16.2134 6.31579 15.7895 6.73974 15.7895 7.26316C15.7895 7.78658 16.2134 8.21053 16.7368 8.21053C17.2603 8.21053 17.6842 7.78658 17.6842 7.26316C17.6842 6.73974 17.2603 6.31579 16.7368 6.31579ZM12 7.26316C9.39245 7.26316 7.26316 9.39245 7.26316 12C7.26316 14.6075 9.39245 16.7368 12 16.7368C14.6075 16.7368 16.7368 14.6075 16.7368 12C16.7368 9.39245 14.6075 7.26316 12 7.26316ZM12 8.68421C13.8394 8.68421 15.3158 10.1606 15.3158 12C15.3158 13.8394 13.8394 15.3158 12 15.3158C10.1606 15.3158 8.68421 13.8394 8.68421 12C8.68421 10.1606 10.1606 8.68421 12 8.68421Z" fill="currentColor"></path>
  </symbol>
  <symbol fill="none" xmlns="http://www.w3.org/2000/svg" viewBox="0 0 24 24" id="linkedin">
    <path d="M5.09416 7.26316H5.11879C6.44037 7.26316 7.26316 6.31579 7.26316 5.13158C7.23853 3.92132 6.44037 3 5.14389 3C3.84742 3 3 3.92132 3 5.13158C3 6.31579 3.82232 7.26316 5.09416 7.26316ZM3 8.68421H7.26316V21H3V8.68421ZM21.9474 13.1842C21.9474 10.6988 19.9328 8.68421 17.4474 8.68421C16.0012 8.68421 14.718 9.36916 13.8947 10.4293V8.68421H9.63158V21H13.8947V13.8947C13.8947 12.8484 14.7431 12 15.7895 12C16.8358 12 17.6842 12.8484 17.6842 13.8947V21H21.9474C21.9474 21 21.9474 13.8734 21.9474 13.1842Z" fill="currentColor"></path>
  </symbol>
  <symbol fill="none" xmlns="http://www.w3.org/2000/svg" viewBox="0 0 339 238" id="square-fill">
    <rect x="-5.18115" y="67.4647" width="316.778" height="181" rx="30" transform="rotate(-13.2527 -5.18115 67.4647)" fill="currentColor"></rect>
  </symbol>
  <symbol fill="none" xmlns="http://www.w3.org/2000/svg" viewBox="0 0 349 255" id="square-outline">
    <rect x="-5.6164" y="89.3648" width="321.359" height="179" rx="29" transform="rotate(-17.2679 -5.6164 89.3648)" stroke="currentColor" stroke-width="2"></rect>
  </symbol>
  <symbol fill="none" xmlns="http://www.w3.org/2000/svg" viewBox="0 0 320 273" id="triangle-fill">
    <path d="M319.03 242.784L276.952 20.9819C276.108 16.5678 274.09 12.4643 271.112 9.10434C268.133 5.74437 264.304 3.25242 260.028 1.89161C255.753 0.530799 251.189 0.351498 246.819 1.37261C242.449 2.39372 238.434 4.5774 235.199 7.69322L8.62773 179.093C5.34993 182.123 2.94296 185.978 1.65805 190.256C0.373131 194.534 0.257041 199.079 1.32211 203.416C2.38717 207.753 4.59448 211.724 7.71352 214.914C10.8326 218.105 14.7492 220.399 19.0554 221.557L287.557 271.938C291.701 273.169 296.093 273.298 300.302 272.314C304.512 271.33 308.395 269.267 311.569 266.327C314.743 263.386 317.1 259.67 318.408 255.543C319.716 251.415 319.93 247.018 319.03 242.784Z" fill="currentColor"></path>
  </symbol>
  <symbol fill="none" xmlns="http://www.w3.org/2000/svg" viewBox="0 0 310 276" id="triangle-outline">
    <path d="M308.806 249.12L308.807 249.131L308.808 249.142C309.123 253.285 308.357 257.441 306.585 261.201C304.812 264.961 302.095 268.196 298.699 270.587C295.303 272.979 291.346 274.446 287.216 274.844C283.085 275.241 278.924 274.557 275.14 272.857L275.093 272.836L275.044 272.82L15.6795 187.143C11.7461 185.49 8.32618 182.813 5.77438 179.389C3.21495 175.955 1.6225 171.895 1.1636 167.632C0.704698 163.37 1.39618 159.06 3.16567 155.154C4.92844 151.263 7.69702 147.913 11.1841 145.452L258.519 5.77582L258.571 5.74654L258.619 5.71131C262.095 3.16052 266.193 1.59631 270.481 1.18353C274.769 0.770738 279.087 1.52465 282.981 3.36563C286.874 5.20661 290.198 8.06662 292.602 11.6439C295.007 15.2212 296.402 19.3832 296.64 23.6909L308.806 249.12Z" stroke="currentColor" stroke-width="2"></path>
  </symbol>
</svg>