<?xml version="1.0" standalone="no"?>
<!DOCTYPE svg PUBLIC "-//W3C//DTD SVG 20010904//EN"
 "http://www.w3.org/TR/2001/REC-SVG-20010904/DTD/svg10.dtd">
<svg version="1.0" xmlns="http://www.w3.org/2000/svg"
 width="666.000000pt" height="666.000000pt" viewBox="0 0 666.000000 666.000000"
 preserveAspectRatio="xMidYMid meet">
<metadata>
Created by potrace 1.14, written by Peter Selinger 2001-2017
</metadata>
<g transform="translate(0.000000,666.000000) scale(0.100000,-0.100000)"
fill="#000000" stroke="none">
<path d="M3206 6641 c-5 -9 -8 -111 -6 -201 1 -30 1 -59 0 -65 -1 -5 -2 -14
-1 -19 3 -13 3 -129 1 -141 -1 -5 -2 -14 -1 -19 5 -25 4 -137 -1 -142 -3 -3
-4 -13 -1 -23 4 -16 18 -18 129 -18 l124 -1 0 49 c1 27 1 150 1 274 0 124 0
244 -1 268 l0 43 -121 0 c-66 0 -121 -2 -123 -5z"/>
<path d="M1465 5987 c-38 -39 -75 -78 -82 -87 -10 -14 21 -49 211 -239 l223
-223 74 74 c41 40 80 81 87 90 12 14 -13 43 -208 237 -122 122 -224 221 -228
220 -4 0 -38 -33 -77 -72z"/>
<path d="M4882 5837 l-222 -222 89 -89 89 -88 221 221 c121 121 221 224 221
228 0 7 -163 173 -170 173 -3 0 -105 -100 -228 -223z"/>
<path d="M3437 5603 c-2 -1 -39 -5 -83 -7 -77 -5 -131 -11 -186 -22 -15 -3
-30 -6 -33 -6 -2 0 -28 -6 -57 -14 -29 -8 -64 -17 -77 -20 -80 -17 -404 -166
-441 -204 -3 -3 -25 -19 -50 -35 -25 -16 -47 -32 -50 -35 -3 -3 -27 -23 -55
-44 -85 -67 -227 -216 -303 -318 -39 -53 -72 -99 -72 -103 0 -4 -8 -19 -19
-33 -43 -61 -150 -287 -166 -352 -2 -8 -13 -46 -25 -85 -11 -38 -23 -83 -25
-100 -3 -16 -7 -41 -10 -55 -15 -86 -21 -162 -24 -315 -2 -80 10 -199 30 -299
6 -28 13 -63 15 -77 7 -39 57 -195 95 -296 18 -48 75 -173 127 -278 146 -297
193 -396 234 -500 11 -27 25 -61 31 -75 5 -14 11 -29 13 -35 2 -5 20 -55 39
-110 30 -82 72 -214 90 -285 12 -45 25 -99 30 -130 3 -19 8 -43 11 -52 7 -24
14 -58 19 -103 23 -175 57 -258 132 -324 57 -51 91 -69 173 -91 57 -15 107
-17 385 -16 255 2 326 5 350 16 61 30 88 71 87 135 -2 73 -33 123 -92 147 -15
7 -146 12 -325 13 -165 1 -307 3 -316 4 -38 3 -75 60 -83 126 -8 67 -32 189
-56 295 -45 194 -171 551 -269 765 -16 33 -36 78 -46 100 -10 22 -73 153 -140
290 -107 217 -152 323 -170 401 -56 236 -63 440 -19 633 8 36 17 76 19 88 3
12 10 34 15 48 5 14 7 25 4 25 -4 0 -2 6 3 13 5 6 18 35 28 62 35 99 153 314
177 323 4 2 8 10 8 17 0 7 3 15 8 17 4 2 18 17 30 33 37 47 143 156 203 206
67 57 196 144 227 153 12 4 22 12 22 17 0 5 3 8 8 7 4 -1 39 13 77 31 140 65
345 120 545 147 58 8 99 31 127 74 44 64 23 163 -43 206 -23 16 -119 36 -127
27z"/>
<path d="M3572 5136 c-89 -31 -132 -137 -87 -214 31 -52 75 -73 162 -77 116
-5 182 -14 238 -30 27 -9 51 -15 52 -15 23 -1 145 -54 204 -89 76 -44 92 -57
182 -141 99 -93 208 -262 223 -346 2 -13 8 -34 13 -46 9 -26 7 -99 -5 -143
-10 -37 -11 -227 -2 -275 28 -148 118 -341 228 -488 39 -52 70 -95 70 -97 0
-2 -17 -9 -37 -16 -62 -20 -130 -57 -163 -89 -48 -47 -78 -121 -73 -177 4 -42
27 -109 42 -123 4 -3 12 -13 20 -23 16 -20 6 -32 -59 -66 -66 -35 -96 -123
-77 -221 6 -32 4 -37 -24 -54 -36 -21 -75 -63 -95 -102 -19 -36 -26 -82 -29
-179 -1 -44 -5 -87 -9 -96 -7 -17 -67 -42 -106 -44 -14 -1 -30 -4 -35 -6 -11
-6 -326 -2 -415 5 -30 2 -73 5 -95 5 l-40 1 2 42 c7 117 5 627 -1 658 -5 19
-17 51 -28 70 -37 67 -143 89 -207 43 -39 -28 -70 -97 -63 -136 6 -35 6 -454
-1 -764 -2 -106 -2 -194 2 -194 3 -1 35 -2 71 -4 80 -3 257 -12 405 -21 406
-24 597 10 711 124 74 73 106 155 108 277 l2 70 39 20 c48 25 98 72 119 114
20 38 27 112 15 154 -8 27 -4 35 41 84 28 30 53 66 56 79 3 13 10 24 14 24 10
0 24 73 23 122 -1 20 -10 57 -22 83 -19 43 -19 46 -3 52 153 55 229 135 236
245 5 84 -54 197 -182 353 -17 20 -81 134 -100 178 -41 93 -69 271 -48 306 3
5 9 26 12 47 23 139 -6 286 -90 454 -32 64 -89 156 -105 170 -4 3 -18 21 -32
40 -49 65 -151 162 -219 210 -19 13 -37 27 -40 30 -25 30 -203 118 -313 155
-166 55 -411 86 -485 61z"/>
<path d="M680 4222 c-6 -2 -10 -54 -10 -128 l0 -124 317 2 316 3 0 118 c0 64
-2 120 -6 123 -6 6 -599 12 -617 6z"/>
<path d="M5369 4218 c-18 -7 -20 -16 -18 -128 l1 -120 313 0 c241 0 314 3 317
13 7 19 3 226 -4 233 -9 9 -585 10 -609 2z"/>
<path d="M3433 3834 c-32 -6 -79 -21 -106 -33 -41 -20 -119 -88 -154 -133 -19
-26 -50 -101 -58 -143 -9 -47 -8 -163 3 -179 3 -6 7 -17 8 -24 1 -6 12 -31 23
-55 102 -210 370 -284 572 -156 93 59 163 166 175 269 3 19 6 40 8 45 2 6 -1
39 -6 74 -35 228 -242 377 -465 335z"/>
<path d="M2687 858 c-50 -10 -85 -34 -103 -71 -18 -34 -20 -108 -5 -145 17
-39 74 -72 134 -78 29 -3 394 -5 812 -6 552 -1 771 2 802 11 43 12 92 59 94
89 0 9 3 28 5 42 13 69 -35 137 -112 159 -37 10 -1577 10 -1627 -1z"/>
<path d="M3083 304 c-50 -13 -75 -33 -96 -77 -17 -35 -16 -108 3 -148 12 -26
59 -60 95 -68 11 -2 202 -4 425 -4 356 -1 409 1 436 15 42 23 55 41 69 96 20
78 -12 151 -78 180 -41 19 -785 23 -854 6z"/>
</g>
</svg>
