<svg width="32" height="32" viewBox="0 0 32 32" fill="none" xmlns="http://www.w3.org/2000/svg">
    <path d="M21.0668 12.2667L9.93346 23.3667C9.60013 23.7 9.19457 23.8722 8.7168 23.8833C8.23902 23.8944 7.82235 23.7222 7.4668 23.3667C7.13346 23.0333 6.9668 22.6222 6.9668 22.1333C6.9668 21.6444 7.13346 21.2333 7.4668 20.9L18.5668 9.76667H9.50013C9.01124 9.76667 8.59457 9.59445 8.25013 9.25C7.90569 8.90556 7.73346 8.48889 7.73346 8C7.73346 7.51112 7.90569 7.09445 8.25013 6.75C8.59457 6.40556 9.01124 6.23334 9.50013 6.23334H22.8335C23.3224 6.23334 23.739 6.40556 24.0835 6.75C24.4279 7.09445 24.6001 7.51112 24.6001 8V21.3333C24.6001 21.8222 24.4279 22.2389 24.0835 22.5833C23.739 22.9278 23.3224 23.1 22.8335 23.1C22.3446 23.1 21.9279 22.9278 21.5835 22.5833C21.239 22.2389 21.0668 21.8222 21.0668 21.3333V12.2667Z" fill="currentColor"/>
</svg>
