<svg width="32" height="32" viewBox="0 0 32 32" fill="none" xmlns="http://www.w3.org/2000/svg">
<path d="M10.9332 19.7333L22.0665 8.63333C22.3999 8.3 22.8054 8.12777 23.2832 8.11666C23.761 8.10555 24.1776 8.27777 24.5332 8.63333C24.8665 8.96666 25.0332 9.37777 25.0332 9.86666C25.0332 10.3556 24.8665 10.7667 24.5332 11.1L13.4332 22.2333L22.4999 22.2333C22.9888 22.2333 23.4054 22.4056 23.7499 22.75C24.0943 23.0944 24.2665 23.5111 24.2665 24C24.2665 24.4889 24.0943 24.9056 23.7499 25.25C23.4054 25.5944 22.9888 25.7667 22.4999 25.7667L9.16654 25.7667C8.67765 25.7667 8.26098 25.5944 7.91653 25.25C7.57209 24.9056 7.39987 24.4889 7.39987 24L7.39987 10.6667C7.39987 10.1778 7.57209 9.76111 7.91653 9.41666C8.26098 9.07222 8.67765 8.9 9.16653 8.9C9.65542 8.9 10.0721 9.07222 10.4165 9.41666C10.761 9.76111 10.9332 10.1778 10.9332 10.6667L10.9332 19.7333Z" fill="currentColor"/>
</svg>
