<svg width="24" height="24" viewBox="0 0 24 24" fill="none" xmlns="http://www.w3.org/2000/svg">
<path d="M13.923 6.52174H15.6538C15.8448 6.52174 15.9999 6.34643 15.9999 6.13043V3.49422C15.9999 3.28917 15.8604 3.11857 15.6797 3.10409C15.129 3.05987 14.0532 3 13.2795 3C11.1538 3 9.7692 4.44 9.7692 7.05704V9.65217H7.34615C7.15508 9.65217 7 9.82748 7 10.0435V12.7826C7 12.9986 7.15508 13.1739 7.34615 13.1739H9.7692V20.6087C9.7692 20.8247 9.92428 21 10.1154 21H12.5384C12.7295 21 12.8846 20.8247 12.8846 20.6087V13.1739H15.3845C15.561 13.1739 15.7091 13.024 15.7285 12.8257L15.9978 10.0865C16.0207 9.85487 15.8601 9.65217 15.6538 9.65217H12.8846V7.69565C12.8846 7.04726 13.3494 6.52174 13.923 6.52174Z" fill="currentColor"/>
</svg>
