<svg width="24" height="24" viewBox="0 0 24 24" fill="none" xmlns="http://www.w3.org/2000/svg">
<path d="M8.44737 3C5.44724 3 3 5.44724 3 8.44737V15.5526C3 18.5524 5.44715 21 8.44737 21H15.5526C18.5524 21 21 18.5524 21 15.5526V8.44737C21 5.44715 18.5524 3 15.5526 3H8.44737ZM8.44737 4.42105H15.5526C17.7843 4.42105 19.5789 6.21527 19.5789 8.44737V15.5526C19.5789 17.7842 17.7842 19.5789 15.5526 19.5789H8.44737C6.21527 19.5789 4.42105 17.7843 4.42105 15.5526V8.44737C4.42105 6.21518 6.21518 4.42105 8.44737 4.42105ZM16.7368 6.31579C16.2134 6.31579 15.7895 6.73974 15.7895 7.26316C15.7895 7.78658 16.2134 8.21053 16.7368 8.21053C17.2603 8.21053 17.6842 7.78658 17.6842 7.26316C17.6842 6.73974 17.2603 6.31579 16.7368 6.31579ZM12 7.26316C9.39245 7.26316 7.26316 9.39245 7.26316 12C7.26316 14.6075 9.39245 16.7368 12 16.7368C14.6075 16.7368 16.7368 14.6075 16.7368 12C16.7368 9.39245 14.6075 7.26316 12 7.26316ZM12 8.68421C13.8394 8.68421 15.3158 10.1606 15.3158 12C15.3158 13.8394 13.8394 15.3158 12 15.3158C10.1606 15.3158 8.68421 13.8394 8.68421 12C8.68421 10.1606 10.1606 8.68421 12 8.68421Z" fill="currentColor"/>
</svg>
