<svg width="24" height="24" viewBox="0 0 24 24" fill="none" xmlns="http://www.w3.org/2000/svg">
<path d="M5.09416 7.26316H5.11879C6.44037 7.26316 7.26316 6.31579 7.26316 5.13158C7.23853 3.92132 6.44037 3 5.14389 3C3.84742 3 3 3.92132 3 5.13158C3 6.31579 3.82232 7.26316 5.09416 7.26316ZM3 8.68421H7.26316V21H3V8.68421ZM21.9474 13.1842C21.9474 10.6988 19.9328 8.68421 17.4474 8.68421C16.0012 8.68421 14.718 9.36916 13.8947 10.4293V8.68421H9.63158V21H13.8947V13.8947C13.8947 12.8484 14.7431 12 15.7895 12C16.8358 12 17.6842 12.8484 17.6842 13.8947V21H21.9474C21.9474 21 21.9474 13.8734 21.9474 13.1842Z" fill="currentColor"/>
</svg>
