<svg width="310" height="276" viewBox="0 0 310 276" fill="none" xmlns="http://www.w3.org/2000/svg">
<path d="M308.806 249.12L308.807 249.131L308.808 249.142C309.123 253.285 308.357 257.441 306.585 261.201C304.812 264.961 302.095 268.196 298.699 270.587C295.303 272.979 291.346 274.446 287.216 274.844C283.085 275.241 278.924 274.557 275.14 272.857L275.093 272.836L275.044 272.82L15.6795 187.143C11.7461 185.49 8.32618 182.813 5.77438 179.389C3.21495 175.955 1.6225 171.895 1.1636 167.632C0.704698 163.37 1.39618 159.06 3.16567 155.154C4.92844 151.263 7.69702 147.913 11.1841 145.452L258.519 5.77582L258.571 5.74654L258.619 5.71131C262.095 3.16052 266.193 1.59631 270.481 1.18353C274.769 0.770738 279.087 1.52465 282.981 3.36563C286.874 5.20661 290.198 8.06662 292.602 11.6439C295.007 15.2212 296.402 19.3832 296.64 23.6909L308.806 249.12Z" stroke="currentColor" stroke-width="2"/>
</svg>
