<svg width="320" height="273" viewBox="0 0 320 273" fill="none" xmlns="http://www.w3.org/2000/svg">
<path d="M319.03 242.784L276.952 20.9819C276.108 16.5678 274.09 12.4643 271.112 9.10434C268.133 5.74437 264.304 3.25242 260.028 1.89161C255.753 0.530799 251.189 0.351498 246.819 1.37261C242.449 2.39372 238.434 4.5774 235.199 7.69322L8.62773 179.093C5.34993 182.123 2.94296 185.978 1.65805 190.256C0.373131 194.534 0.257041 199.079 1.32211 203.416C2.38717 207.753 4.59448 211.724 7.71352 214.914C10.8326 218.105 14.7492 220.399 19.0554 221.557L287.557 271.938C291.701 273.169 296.093 273.298 300.302 272.314C304.512 271.33 308.395 269.267 311.569 266.327C314.743 263.386 317.1 259.67 318.408 255.543C319.716 251.415 319.93 247.018 319.03 242.784Z" fill="currentColor"/>
</svg>
